# xmcd
#
# Track frame offsets:
#	150
#	19307
#	35342
#	55477
#	69627
#	86317
#	102465
#	116004
#	132212
#	147085
#	164430
#	183905
#	199507
#	225095
#	242305
#	258960
#	278217
#	298072
#	315352
#	331262
#
# Disc length: 4652 seconds
#
# Revision: 3
# Processed by: cddbd v1.5.2PL0 Copyright (c) Steve Scherf et al.
# Submitted via: EasyCDDAExtractor 15.3.0.1
#
DISCID=11122a14
DTITLE=Yolandita Monge - 20 De Coleccion
DYEAR=1993
DGENRE=Latin
TTITLE0=Cambiando La Rutina De Vivir
TTITLE1=Como Lo Hago Yo
TTITLE2=Espacio Negativo
TTITLE3=Que Te Hice
TTITLE4=Si
TTITLE5=Perdoname Otra Vez
TTITLE6=Siempre Tu
TTITLE7=La Distancia
TTITLE8=Sueños
TTITLE9=Señor... Del Pasado
TTITLE10=El Amor
TTITLE11=Luz De Luna
TTITLE12=Laberinto De Amor
TTITLE13=Te Agradezco
TTITLE14=Eres Magico
TTITLE15=Quitame Ese Hombre Del Corazon
TTITLE16=Cuando Termina Un Amor
TTITLE17=Todo A Pulmon
TTITLE18=Contra La Pared
TTITLE19=Esta Guerra La Perdere
EXTD=YEAR: 1993 ID3G: 86
EXTT0=
EXTT1=
EXTT2=
EXTT3=
EXTT4=
EXTT5=
EXTT6=
EXTT7=
EXTT8=
EXTT9=
EXTT10=
EXTT11=
EXTT12=
EXTT13=
EXTT14=
EXTT15=
EXTT16=
EXTT17=
EXTT18=
EXTT19=
PLAYORDER=
